<svg xmlns="http://www.w3.org/2000/svg" version="1.1" xmlns:xlink="http://www.w3.org/1999/xlink" xmlns:svgjs="http://svgjs.dev/svgjs" width="1440" height="560" preserveAspectRatio="none" viewBox="0 0 1440 560"><g mask="url(&quot;#SvgjsMask1013&quot;)" fill="none"><path d="M717.27 592.2C811.6 592.12 888.28 553.21 1091.81 546.6 1295.35 539.99 1351.15 286.35 1466.36 272.2" stroke="rgba(99, 102, 241, 1)" stroke-width="2"></path><path d="M795.32 601.19C944.44 575.62 1020.35 208.86 1255.26 207.84 1490.17 206.82 1589.73 405.08 1715.2 409.44" stroke="rgba(99, 102, 241, 1)" stroke-width="2"></path><path d="M728.95 639.32C825.31 617.21 797.06 361.49 1010.09 361.18 1223.11 360.87 1426.44 516.52 1572.36 517.98" stroke="rgba(99, 102, 241, 1)" stroke-width="2"></path><path d="M454.69 563.19C613.13 552.58 727.49 250.85 1007.45 250.28 1287.4 249.71 1417.99 383.72 1560.2 384.68" stroke="rgba(99, 102, 241, 1)" stroke-width="2"></path><path d="M432.62 670.6C601.22 654.75 712.38 301.39 1000.09 300.73 1287.79 300.07 1418.79 477.82 1567.55 479.93" stroke="rgba(99, 102, 241, 1)" stroke-width="2"></path></g><defs><mask id="SvgjsMask1013"><rect width="1440" height="560" fill="#ffffff"></rect></mask></defs></svg>