<svg xmlns="http://www.w3.org/2000/svg" version="1.1" xmlns:xlink="http://www.w3.org/1999/xlink" xmlns:svgjs="http://svgjs.dev/svgjs" width="1440" height="560" preserveAspectRatio="none" viewBox="0 0 1440 560">
  <g mask="url(&quot;#SvgjsMask1063&quot;)" fill="none">
    <rect width="1440" height="560" x="0" y="0" fill="rgba(4, 6, 21, 1)"></rect>
      <path d="M0,510.501C93.978,507.453,150.872,407.799,224.465,349.274C289.793,297.322,366.918,259.009,407.769,186.222C450.534,110.024,467.018,21.084,457.4,-65.764C447.591,-154.336,413.77,-240.683,353.249,-306.092C293.73,-370.418,207.627,-396.418,124.844,-425.179C38.013,-455.346,-48.822,-487.367,-140.216,-477.532C-242.914,-466.48,-357.686,-446.534,-422.685,-366.258C-487.437,-286.288,-461.289,-170.199,-471.931,-67.853C-482.101,29.949,-531.174,134.786,-483.74,220.917C-436.492,306.71,-318.057,313.836,-234.021,364.143C-153.447,412.377,-93.859,513.545,0,510.501" fill="#03040e"></path>
      <path d="M1440 1071.931C1537.4569999999999 1080.2640000000001 1635.208 1044.467 1714.894 987.744 1792.538 932.475 1837.991 846.529 1878.106 760.076 1918.433 673.165 1969.421 580.275 1947.209 487.074 1925.356 395.382 1825.879 350.35400000000004 1763.596 279.603 1701.939 209.563 1673.98 93.63799999999998 1582.92 73.25900000000001 1491.198 52.73200000000003 1416.153 146.88299999999998 1329.118 182.36900000000003 1253.091 213.36700000000002 1170.029 220.187 1103.74 268.629 1025.0520000000001 326.132 921.956 387.346 915.546 484.595 909.065 582.925 1022.392 643.122 1073.503 727.374 1117.097 799.236 1132.505 885.611 1193.743 943.183 1262.624 1007.941 1345.802 1063.877 1440 1071.931" fill="#05081c"></path>
      </g><defs><mask id="SvgjsMask1063"><rect width="1440" height="560" fill="#ffffff"></rect></mask></defs></svg>