<svg xmlns="http://www.w3.org/2000/svg" version="1.1" xmlns:xlink="http://www.w3.org/1999/xlink" xmlns:svgjs="http://svgjs.dev/svgjs" width="900" height="900"  viewBox="0 0 900 900">
  <defs>
    <path id="horizontal" d="M180 0 180 900" fill="none" />
    <path id="vertical" d="M0 180 900 180" fill="none" />
		<path id="horizontal-cross" d="M175 180 185 180" fill="none"/>
		<path id="vertical-cross" d="M180 175 180 185" fill="none"/>
  </defs>
	<g stroke-width="1" stroke="#312e8110">
		<use xlink:href="#horizontal" />
		<use xlink:href="#horizontal" x="180" />
		<use xlink:href="#horizontal" x="360" />
		<use xlink:href="#horizontal" x="540" />
		<use xlink:href="#horizontal" x="720" />
		<use xlink:href="#vertical" />
		<use xlink:href="#vertical" y="180" />
		<use xlink:href="#vertical" y="360" />
		<use xlink:href="#vertical" y="540" />
		<use xlink:href="#vertical" y="720" />
	</g>
	<g stroke-width="2" stroke="#312e8120">
		<use xlink:href="#horizontal-cross" />
		<use xlink:href="#horizontal-cross" y="180"/>
		<use xlink:href="#horizontal-cross" y="360"/>
		<use xlink:href="#horizontal-cross" y="540"/>
		<use xlink:href="#horizontal-cross" y="720"/>
		<use xlink:href="#horizontal-cross" x="180"/>
		<use xlink:href="#horizontal-cross" x="180" y="180"/>
		<use xlink:href="#horizontal-cross" x="180" y="360"/>
		<use xlink:href="#horizontal-cross" x="180" y="540"/>
		<use xlink:href="#horizontal-cross" x="180" y="720"/>
		<use xlink:href="#horizontal-cross" x="360"/>
		<use xlink:href="#horizontal-cross" x="360" y="180"/>
		<use xlink:href="#horizontal-cross" x="360" y="360"/>
		<use xlink:href="#horizontal-cross" x="360" y="540"/>
		<use xlink:href="#horizontal-cross" x="360" y="720"/>
		<use xlink:href="#horizontal-cross" x="540"/>
		<use xlink:href="#horizontal-cross" x="540" y="180"/>
		<use xlink:href="#horizontal-cross" x="540" y="360"/>
		<use xlink:href="#horizontal-cross" x="540" y="540"/>
		<use xlink:href="#horizontal-cross" x="540" y="720"/>
		<use xlink:href="#horizontal-cross" x="720"/>
		<use xlink:href="#horizontal-cross" x="720" y="180"/>
		<use xlink:href="#horizontal-cross" x="720" y="360"/>
		<use xlink:href="#horizontal-cross" x="720" y="540"/>
		<use xlink:href="#horizontal-cross" x="720" y="720"/>
		<use xlink:href="#vertical-cross" />
		<use xlink:href="#vertical-cross" y="180"/>
		<use xlink:href="#vertical-cross" y="360"/>
		<use xlink:href="#vertical-cross" y="540"/>
		<use xlink:href="#vertical-cross" y="720"/>
		<use xlink:href="#vertical-cross" x="180"/>
		<use xlink:href="#vertical-cross" x="180" y="180"/>
		<use xlink:href="#vertical-cross" x="180" y="360"/>
		<use xlink:href="#vertical-cross" x="180" y="540"/>
		<use xlink:href="#vertical-cross" x="180" y="720"/>
		<use xlink:href="#vertical-cross" x="360"/>
		<use xlink:href="#vertical-cross" x="360" y="180"/>
		<use xlink:href="#vertical-cross" x="360" y="360"/>
		<use xlink:href="#vertical-cross" x="360" y="540"/>
		<use xlink:href="#vertical-cross" x="360" y="720"/>
		<use xlink:href="#vertical-cross" x="540"/>
		<use xlink:href="#vertical-cross" x="540" y="180"/>
		<use xlink:href="#vertical-cross" x="540" y="360"/>
		<use xlink:href="#vertical-cross" x="540" y="540"/>
		<use xlink:href="#vertical-cross" x="540" y="720"/>
		<use xlink:href="#vertical-cross" x="720"/>
		<use xlink:href="#vertical-cross" x="720" y="180"/>
		<use xlink:href="#vertical-cross" x="720" y="360"/>
		<use xlink:href="#vertical-cross" x="720" y="540"/>
		<use xlink:href="#vertical-cross" x="720" y="720"/>
	</g>
</svg>
